<svg id="Layer_1" data-name="Layer 1" xmlns="http://www.w3.org/2000/svg" viewBox="0 0 348.48 201.4"><defs><style>.cls-1{fill:#e13925;}.cls-2{fill:#272626;}</style></defs><title>Corporate Identity</title><path class="cls-1" d="M333.49,168.83a1.22,1.22,0,0,0,.59-0.17l11.58-6.55a1.6,1.6,0,0,0,.77-1.29,1.66,1.66,0,0,0-.58-1.41l-11.56-9.46a1.27,1.27,0,0,0-.87-0.3,1.31,1.31,0,0,0-.6.16,1.65,1.65,0,0,0-.78,1.42l0,16a1.64,1.64,0,0,0,.67,1.35A1.24,1.24,0,0,0,333.49,168.83Z" transform="translate(-159.86 -149.63)"/><path class="cls-2" d="M398.81,254.92c0-.35-0.66.12-0.66,0.12v0c-8.56,6.67-16.39,9.79-24.17,9.79h-0.24a29.46,29.46,0,0,1-5.79-.63c-10.95-2.25-22.34-10.65-36.08-26.48-5.16-5.95-11-9-17.41-9-7.6,0-15.37,4.18-22.58,10.15-1.23,1-2.44,2.08-3.63,3.19a144.94,144.94,0,0,0-18.09,21c-0.85,1.3-1.84,3.35,2,1.41l0,0a51.9,51.9,0,0,1,26.11-7.08c12.12,0,24.71,4.27,37.39,12.7,7.71,5.14,15.53,7.84,23.24,8.1v0.05a28.86,28.86,0,0,0,4.28-.14,37.4,37.4,0,0,0,5.68-.94l0.66-.16h0a46.28,46.28,0,0,0,15.91-7.39C386.59,268.74,396.88,260.38,398.81,254.92Z" transform="translate(-159.86 -149.63)"/><path class="cls-2" d="M386.64,245.89h0a19.19,19.19,0,0,1,.41,2.11,0.78,0.78,0,0,0,0,.08l0,0.2h0c0,0.09,0,.19,0,0.29v0.13c0,0.11,0,.21,0,0.32v0.05c0,0.12,0,.23,0,0.34s0,0,0,0a0.59,0.59,0,0,1,0,.08,8.57,8.57,0,0,1-.61,4.11,0.85,0.85,0,0,1,0,.08l-0.08.11a2.86,2.86,0,0,1-.15.27c-0.09.18-.12,0.36,0.09,0.35h0a14.76,14.76,0,0,0,4.77-2,32.63,32.63,0,0,0,6-4.89c1.78-1.68-1.5-2.41-4.07-2.71h0a15.66,15.66,0,0,1-6.24-2h0l-0.13-.08,0,0h0c-1.53-.85-0.12,2.82-0.11,2.83Z" transform="translate(-159.86 -149.63)"/><path class="cls-2" d="M295.78,229.93C302,225.72,308.52,223,315,223c7.21,0,13.79,3.36,19.56,10,13.85,16,25.1,24.06,35.82,25.71a25.58,25.58,0,0,0,5.82,0c2.57-.45,5.69-1.47,6.84-3.78a8.58,8.58,0,0,0,.12-4l-10-42.42-4.15-18.2a3.58,3.58,0,0,0-2.13-2.48h0l-7.52-3.12-1.72,10.64c-0.14.45-.52,0.92-1.55,0.33l-13-8.15-1.48-10.77a2.34,2.34,0,0,0-2.2-2.11h-8c-1.37,0-1.69,2-1.7,2.16l-1.48,10.71-13.67,8.15c-1,.58-1.41.11-1.54-0.33l-1.71-10.64-7.52,3.12a3.57,3.57,0,0,0-2.13,2.48l0,0.32L299,203.29l-5.27,24-0.08.56C293.54,229,293.55,231.34,295.78,229.93Z" transform="translate(-159.86 -149.63)"/><path class="cls-2" d="M159.86,350.83V318.75h25.55a19.28,19.28,0,0,1,4.24.4,6.36,6.36,0,0,1,2.8,1.33A5.19,5.19,0,0,1,194,323a14.32,14.32,0,0,1,.47,4v2q0,4.57-4.24,5.27a6.12,6.12,0,0,1,3.54,1.68,5.73,5.73,0,0,1,1.44,4.29v2.1a13.07,13.07,0,0,1-.56,4.13,5.67,5.67,0,0,1-1.75,2.63,7,7,0,0,1-3.05,1.37,21.49,21.49,0,0,1-4.43.4H159.86Zm28.35-23a2.92,2.92,0,0,0-.63-2.14,3.1,3.1,0,0,0-2.17-.61H166.15V332h19.3a2.8,2.8,0,0,0,2.12-.68,3.35,3.35,0,0,0,.63-2.31v-1.21ZM189,340.38a2.68,2.68,0,0,0-3.31-3.22H166.15v7.37h19.26a4.25,4.25,0,0,0,2.82-.68,3.07,3.07,0,0,0,.72-2.31v-1.17Z" transform="translate(-159.86 -149.63)"/><path class="cls-2" d="M267.22,350.89l-4-7.46H243.86l-4,7.46h-7.18l17.58-32.08h6.57l17.58,32.08h-7.18Zm-13.66-25.79-7.27,13.29h14.55Z" transform="translate(-159.86 -149.63)"/><path class="cls-2" d="M285.83,350.89a18.87,18.87,0,0,1-4.8-.51,6.43,6.43,0,0,1-3.05-1.7,6.84,6.84,0,0,1-1.63-3.19,21.4,21.4,0,0,1-.49-5V329.21a21.41,21.41,0,0,1,.49-5A7,7,0,0,1,278,321a6.18,6.18,0,0,1,3.05-1.7,19.72,19.72,0,0,1,4.8-.49h18a8.94,8.94,0,0,1,3.1.49,8.47,8.47,0,0,1,2.26,1.21,7,7,0,0,1,1.49,1.54,8.84,8.84,0,0,1,.84,1.47l-4,4.1a4.75,4.75,0,0,0-1.35-1.7,4.24,4.24,0,0,0-2.75-.77H285.88a4,4,0,0,0-2.94.89,4.61,4.61,0,0,0-.84,3.17v11.33a9.68,9.68,0,0,0,.14,1.77,2.91,2.91,0,0,0,.54,1.26,2.37,2.37,0,0,0,1.14.77,6.15,6.15,0,0,0,2,.26h17.76a4.13,4.13,0,0,0,2.75-.77,5,5,0,0,0,1.3-1.7l4,4.06a8.71,8.71,0,0,1-.84,1.47,6.89,6.89,0,0,1-1.49,1.54,8.38,8.38,0,0,1-2.26,1.21,8.94,8.94,0,0,1-3.1.49H285.83Z" transform="translate(-159.86 -149.63)"/><path class="cls-2" d="M345.09,350.89L332.45,338.3,322.8,347v3.92h-6.34V318.81h6.34v20.24l22.29-20.24h9.09l-17.39,15.57,17.3,16.51h-9Z" transform="translate(-159.86 -149.63)"/><path class="cls-2" d="M363.74,338.12v12.78h-6.29V318.81h30.12v6.34H363.74v7.37h23.31v5.6H363.74Z" transform="translate(-159.86 -149.63)"/><path class="cls-2" d="M462.08,350.89L451,340.4H440.86v10.49h-6.34V318.81h26.2a14.94,14.94,0,0,1,4.31.54,6.23,6.23,0,0,1,2.82,1.7,7,7,0,0,1,1.56,3.08,18.79,18.79,0,0,1,.49,4.62v2a16.48,16.48,0,0,1-.58,4.8,6,6,0,0,1-1.89,2.94,7.37,7.37,0,0,1-3.36,1.47,27.14,27.14,0,0,1-5,.4l11.89,10.58h-8.86Zm1.59-21.08a8.58,8.58,0,0,0-.54-3.47q-0.54-1.14-2.59-1.14H440.86v9.93h19.68a3,3,0,0,0,2.4-.84,4.56,4.56,0,0,0,.72-2.94v-1.54Z" transform="translate(-159.86 -149.63)"/><polygon class="cls-2" points="70.53 194.92 46.38 194.92 46.38 169.18 40.09 169.18 40.09 201.26 66.34 201.26 70.53 194.92"/><polygon class="cls-2" points="313.13 169.18 313.13 169.29 316.75 175.52 327.66 175.52 327.66 201.26 333.95 201.26 333.95 175.52 344.8 175.52 348.48 169.18 313.13 169.18"/><path class="cls-2" d="M476.6,325.16" transform="translate(-159.86 -149.63)"/><line class="cls-2" x1="313.13" y1="169.3" x2="313.07" y2="169.18"/><path class="cls-2" d="M427.37,324.2a6.83,6.83,0,0,0-1.72-3.22,6,6,0,0,0-2.07-1.36,7.12,7.12,0,0,0-1.1-.4,18.66,18.66,0,0,0-4.85-.62H403.07a18.67,18.67,0,0,0-4.85.62,7.12,7.12,0,0,0-1.1.4A6,6,0,0,0,395,321a6.83,6.83,0,0,0-1.73,3.22,21.21,21.21,0,0,0-.65,4.94V340.5a21.21,21.21,0,0,0,.65,4.94,6.83,6.83,0,0,0,1.73,3.22,6,6,0,0,0,2.07,1.36,7,7,0,0,0,1.1.4,18.62,18.62,0,0,0,4.85.62h14.56a18.61,18.61,0,0,0,4.85-.62,7,7,0,0,0,1.1-.4,6,6,0,0,0,2.07-1.36,6.83,6.83,0,0,0,1.72-3.22,21.15,21.15,0,0,0,.65-4.94V329.14A21.15,21.15,0,0,0,427.37,324.2Zm-14.82,20.2h-9.49a4,4,0,0,1-2.93-.82,4.56,4.56,0,0,1-.83-3.2V329.26a4.57,4.57,0,0,1,.83-3.2,4,4,0,0,1,2.93-.82h14.56a4,4,0,0,1,2.93.82,4.57,4.57,0,0,1,.83,3.2v11.12a4.57,4.57,0,0,1-.83,3.2,4,4,0,0,1-2.93.82h-5.08Z" transform="translate(-159.86 -149.63)"/></svg>